<svg width="1200" height="1200" viewBox="0 0 1200 1200" fill="none" xmlns="http://www.w3.org/2000/svg">
  <rect width="1200" height="1200" rx="208" fill="#F8F9F7"/>

  <!-- Asymmetric XX monogram: compute core + AI network. -->
  <g stroke-linecap="round" stroke-linejoin="round">
    <path d="M302 316L390 408M518 316L430 408M302 538L390 446M518 538L430 446" stroke="#11A683" stroke-width="62"/>
    <path d="M620 320L696 402M824 320L748 402M620 534L696 452M824 534L748 452" stroke="#E6362F" stroke-width="44"/>
  </g>
  <path d="M410 394L443 427L410 460L377 427Z" fill="#11A683"/>
  <!-- Knockout circuit traces turn the green X into a compute core. -->
  <g stroke="#F8F9F7" stroke-width="10" stroke-linecap="round" stroke-linejoin="round">
    <path d="M401 418L370 387L338 353"/>
    <path d="M419 418L450 387L482 353"/>
    <path d="M401 436L370 467L338 501"/>
    <path d="M419 436L450 467L482 501"/>
  </g>
  <g fill="#F8F9F7">
    <circle cx="338" cy="353" r="8"/>
    <circle cx="482" cy="353" r="8"/>
    <circle cx="338" cy="501" r="8"/>
    <circle cx="482" cy="501" r="8"/>
    <rect x="398" y="415" width="24" height="24" rx="5"/>
  </g>
  <g fill="#E6362F">
    <circle cx="620" cy="320" r="32"/>
    <circle cx="824" cy="320" r="32"/>
    <circle cx="620" cy="534" r="32"/>
    <circle cx="824" cy="534" r="32"/>
    <path d="M722 382L761 405V449L722 472L683 449V405L722 382Z"/>
  </g>
  <circle cx="722" cy="427" r="17" fill="#F8F9F7"/>

  <text x="600" y="760" text-anchor="middle"
        font-family="Arial, Helvetica, sans-serif"
        font-size="116" font-weight="700" letter-spacing="0"
        fill="#171A1F"><tspan fill="#11A683">X</tspan><tspan fill="#E6362F">X</tspan>ingDaRen</text>
  <text x="600" y="836" text-anchor="middle"
        font-family="Arial, Helvetica, sans-serif"
        font-size="34" font-weight="700" letter-spacing="12"
        fill="#8A74E8">AI PLATFORM</text>
</svg>
